<svg width="20" height="19" viewBox="0 0 20 19" fill="none" xmlns="http://www.w3.org/2000/svg">
<path d="M16.5674 7.59611C16.6474 7.58861 16.7274 7.57611 16.8099 7.57611C18.0199 7.57611 19 8.39364 19 9.40118V11.0637C19 12.0713 18.0199 12.8888 16.8099 12.8888C16.7274 12.8888 16.5674 12.8688 16.5674 12.8688" stroke="white" stroke-width="2" stroke-linecap="round" stroke-linejoin="round"/>
<path d="M3.4326 7.59611C3.35259 7.58861 3.27259 7.57611 3.19009 7.57611C1.98004 7.57611 1 8.39364 1 9.40118V11.0637C1 12.0713 1.98004 12.8888 3.19009 12.8888C3.27259 12.8888 3.35259 12.8763 3.4326 12.8688L3.80761 12.8163" stroke="white" stroke-width="2" stroke-linecap="round" stroke-linejoin="round"/>
<path d="M13.1634 16.534C13.1634 17.2065 12.6183 17.7516 11.9483 17.7516H8.54317C7.87065 17.7516 7.32812 17.2065 7.32812 16.534C7.32812 15.8615 7.87315 15.319 8.54317 15.319H11.9483C12.6208 15.319 13.1634 15.864 13.1634 16.534Z" stroke="white" stroke-width="2" stroke-linecap="round" stroke-linejoin="round"/>
<path d="M7.60876 15.7565C5.24867 15.4215 3.43359 13.3914 3.43359 10.9388V6.1136C3.43359 3.426 5.61118 1.24841 8.29878 1.24841H11.7039C14.3915 1.24841 16.5691 3.426 16.5691 6.1136V12.8839" stroke="white" stroke-width="2" stroke-linecap="round" stroke-linejoin="round"/>
</svg>
